<svg xmlns="http://www.w3.org/2000/svg" viewBox="0 0 368.83 117.43">
    <defs>
        <style>.cls-1{fill:#414042;}.cls-2{fill:#ef4136;}</style>
    </defs>
    <title>U | CARAVAN</title>
    <g id="katman_2" data-name="katman 2">
        <g id="Layer_1" data-name="Layer 1">
            <path class="cls-1" d="M173.55,99.65h1V114.2h-1Z"/>
            <path class="cls-1" d="M178.39,100.05h1.22v1.34h-1.22Zm.12,4h1V114.2h-1Z"/>
            <path class="cls-1" d="M182.3,104h1.13l3.85,9.07,3.89-9.07h1.09l-4.56,10.24h-.84Z"/>
            <path class="cls-1" d="M195,100.05h1.21v1.34H195Zm.12,4h1V114.2h-1Z"/>
            <path class="cls-1" d="M199.89,104h1v1.89a4,4,0,0,1,3.66-2.13A3.87,3.87,0,0,1,208.6,108v6.22h-1v-6c0-2.09-1.17-3.47-3.23-3.47a3.48,3.48,0,0,0-3.52,3.63v5.88h-1Z"/>
            <path class="cls-1"
                  d="M211.9,115.88l.58-.8a6.63,6.63,0,0,0,4.11,1.43,3.65,3.65,0,0,0,4-3.94v-1.48a5,5,0,0,1-4.24,2.35,4.81,4.81,0,0,1-4.88-4.78v0a4.83,4.83,0,0,1,4.88-4.82,5,5,0,0,1,4.24,2.27v-2h1v8.59a4.72,4.72,0,0,1-1.3,3.45,5.15,5.15,0,0,1-3.68,1.35A7.73,7.73,0,0,1,211.9,115.88Zm8.73-7.24v0a4,4,0,0,0-4.2-3.87,3.77,3.77,0,0,0-3.93,3.85v0a3.87,3.87,0,0,0,3.93,3.89A4.06,4.06,0,0,0,220.63,108.64Z"/>
            <path class="cls-1" d="M230.35,104h1.1l3.07,8.93,3.07-9h.78l3.07,9,3.07-8.93h1.05l-3.73,10.24H241l-3-8.71-3.05,8.71h-.84Z"/>
            <path class="cls-1" d="M248.39,99.65h1v6.28A4,4,0,0,1,253,103.8,3.87,3.87,0,0,1,257.1,108v6.22h-1v-6c0-2.09-1.18-3.47-3.23-3.47a3.49,3.49,0,0,0-3.53,3.63v5.88h-1Z"/>
            <path class="cls-1" d="M260.62,100.05h1.22v1.34h-1.22Zm.12,4h1V114.2h-1Z"/>
            <path class="cls-1" d="M265.7,99.65h1V114.2h-1Z"/>
            <path class="cls-1"
                  d="M269.82,109.14v0a5,5,0,0,1,4.83-5.3c2.85,0,4.66,2.31,4.66,5.32a2.55,2.55,0,0,1,0,.4h-8.43a4,4,0,0,0,4,4,4.57,4.57,0,0,0,3.49-1.59l.67.6a5.34,5.34,0,0,1-4.2,1.91A5.06,5.06,0,0,1,269.82,109.14Zm8.44-.5c-.14-2-1.32-4-3.65-4a4,4,0,0,0-3.75,4Z"/>
            <path class="cls-1" d="M288.67,111.59v-6.66H287.2V104h1.47v-3.25h1V104h3.57v.89h-3.57v6.56a1.78,1.78,0,0,0,2,2,3.54,3.54,0,0,0,1.5-.35V114a3.74,3.74,0,0,1-1.66.36A2.6,2.6,0,0,1,288.67,111.59Z"/>
            <path class="cls-1" d="M296.11,104h1v2.89a4.8,4.8,0,0,1,4.51-3.05V105h-.1c-2.35,0-4.41,1.78-4.41,5.09v4.16h-1Z"/>
            <path class="cls-1"
                  d="M302.74,111.25v0c0-2.11,1.81-3.31,4.45-3.31a12.12,12.12,0,0,1,3.36.44v-.44c0-2.05-1.25-3.11-3.34-3.11a6.76,6.76,0,0,0-3.19.82l-.36-.86a8.24,8.24,0,0,1,3.6-.87,4.4,4.4,0,0,1,3.21,1.11,3.86,3.86,0,0,1,1,2.87v6.34h-1v-1.69a4.62,4.62,0,0,1-3.88,1.93C304.77,114.44,302.74,113.36,302.74,111.25Zm7.83-.85v-1.16a13.35,13.35,0,0,0-3.44-.46c-2.16,0-3.35,1-3.35,2.37v0c0,1.48,1.39,2.33,3,2.33C308.8,113.52,310.57,112.25,310.57,110.4Z"/>
            <path class="cls-1" d="M313.58,104h1.14l3.84,9.07,3.89-9.07h1.1L319,114.28h-.84Z"/>
            <path class="cls-1"
                  d="M324.92,109.14v0a5,5,0,0,1,4.82-5.3c2.85,0,4.66,2.31,4.66,5.32a2.55,2.55,0,0,1,0,.4H326a4,4,0,0,0,4,4,4.57,4.57,0,0,0,3.49-1.59l.68.6a5.38,5.38,0,0,1-4.21,1.91A5,5,0,0,1,324.92,109.14Zm8.43-.5c-.14-2-1.32-4-3.65-4a4,4,0,0,0-3.75,4Z"/>
            <path class="cls-1" d="M337.39,99.65h1V114.2h-1Z"/>
            <path class="cls-1" d="M342.23,100.05h1.22v1.34h-1.22Zm.12,4h1V114.2h-1Z"/>
            <path class="cls-1" d="M347.17,104h1v1.89a4,4,0,0,1,3.67-2.13,3.86,3.86,0,0,1,4.06,4.18v6.22h-1v-6c0-2.09-1.18-3.47-3.23-3.47a3.49,3.49,0,0,0-3.53,3.63v5.88h-1Z"/>
            <path class="cls-1"
                  d="M359.19,115.88l.57-.8a6.65,6.65,0,0,0,4.11,1.43,3.65,3.65,0,0,0,4-3.94v-1.48a5,5,0,0,1-4.25,2.35,4.81,4.81,0,0,1-4.88-4.78v0a4.83,4.83,0,0,1,4.88-4.82,5,5,0,0,1,4.25,2.27v-2h1v8.59a4.71,4.71,0,0,1-1.29,3.45,5.18,5.18,0,0,1-3.69,1.35A7.7,7.7,0,0,1,359.19,115.88Zm8.73-7.24v0a4,4,0,0,0-4.21-3.87,3.77,3.77,0,0,0-3.93,3.85v0a3.87,3.87,0,0,0,3.93,3.89A4.07,4.07,0,0,0,367.92,108.64Z"/>
            <rect class="cls-1" x="58.46" width="1" height="114.22"/>
            <path class="cls-1"
                  d="M117.13,43.83a13.78,13.78,0,0,0-5.26-4.15,15.67,15.67,0,0,0-6.58-1.45,17.57,17.57,0,0,0-7.5,1.56A17.14,17.14,0,0,0,92,44a19.29,19.29,0,0,0-3.7,6.34A22.58,22.58,0,0,0,87,58.16a21.52,21.52,0,0,0,1.25,7.34,18.47,18.47,0,0,0,3.6,6.09,16.84,16.84,0,0,0,5.74,4.15,18.47,18.47,0,0,0,7.68,1.52,15.19,15.19,0,0,0,7.41-1.73,16,16,0,0,0,5.4-4.84l5.6,4.22a21.62,21.62,0,0,1-1.93,2.18,19.84,19.84,0,0,1-3.67,2.84,26.63,26.63,0,0,1-5.5,2.49,23.72,23.72,0,0,1-7.44,1.07,24.29,24.29,0,0,1-10.49-2.21A25.67,25.67,0,0,1,80,58.16a28.79,28.79,0,0,1,1.87-10.48,24.83,24.83,0,0,1,5.23-8.31,23.31,23.31,0,0,1,8.06-5.43A27.06,27.06,0,0,1,105.5,32,25.38,25.38,0,0,1,115,33.87a17.81,17.81,0,0,1,7.65,5.74Z"/>
            <path class="cls-1" d="M156.7,64.32l-9.14-22.49h-.13l-9.28,22.49-2.35,5.81L131,82.25H123.2l21.59-49h6l21,49H164l-4.91-12.12Z"/>
            <path class="cls-1"
                  d="M173.55,33.25h17.23a20,20,0,0,1,7.75,1.28,13,13,0,0,1,4.81,3.25,11,11,0,0,1,2.46,4.43,17.53,17.53,0,0,1,.69,4.74,12.46,12.46,0,0,1-.83,4.53,12.7,12.7,0,0,1-2.39,4,13.45,13.45,0,0,1-3.8,3,13.12,13.12,0,0,1-5,1.49l13.91,22.36h-8.3L187.6,60.65h-7.41v21.6h-6.64Zm6.64,21.59h8.72a23.4,23.4,0,0,0,3.84-.31,10.57,10.57,0,0,0,3.4-1.14A6.28,6.28,0,0,0,198.53,51a8,8,0,0,0,.9-4,8,8,0,0,0-.9-4.05,6.28,6.28,0,0,0-2.38-2.39,10.57,10.57,0,0,0-3.4-1.14,23.4,23.4,0,0,0-3.84-.31h-8.72Z"/>
            <path class="cls-1" d="M242,64.32l-9.13-22.49h-.14L223.4,64.32l-2.35,5.81-4.84,12.12h-7.76l21.6-49h6l21,49h-7.75l-4.92-12.12Z"/>
            <path class="cls-1" d="M244.3,33.25H252l14.4,39.86h.14l15-39.86h7.26l-19.31,49h-6.23Z"/>
            <path class="cls-1" d="M308.34,64.32,299.2,41.83h-.13l-9.28,22.49-2.35,5.81-4.85,12.12h-7.75l21.59-49h6l21,49h-7.75l-4.92-12.12Z"/>
            <path class="cls-1" d="M326.34,33.25h8.72l27,40.28h.14V33.25h6.64v49h-8.44L333.12,42H333V82.25h-6.64Z"/>
            <path class="cls-2"
                  d="M6.64,33.25v30A19,19,0,0,0,7.27,68a13.85,13.85,0,0,0,2.07,4.54A11.37,11.37,0,0,0,13.15,76,11.75,11.75,0,0,0,19,77.26,11.76,11.76,0,0,0,24.78,76a11.24,11.24,0,0,0,3.8-3.39A13.67,13.67,0,0,0,30.66,68a18.94,18.94,0,0,0,.62-4.74v-30h6.65V64.32a20.1,20.1,0,0,1-1.46,7.79,18.38,18.38,0,0,1-4,6,17.65,17.65,0,0,1-6,4A20,20,0,0,1,19,83.49a20,20,0,0,1-7.47-1.38,17.55,17.55,0,0,1-6-4,18.4,18.4,0,0,1-4-6A20.1,20.1,0,0,1,0,64.32V33.25Z"/>
        </g>
    </g>
</svg>
